<?xml version="1.0" encoding="UTF-8"?>
<svg version="1.1" xmlns="http://www.w3.org/2000/svg" width="3146" height="790">
<path d="M0 0 C2.98161077 2.66402924 5.84371229 5.44023751 8.70703125 8.23046875 C9.33867187 8.78863281 9.9703125 9.34679687 10.62109375 9.921875 C31.08764164 28.49696468 42.14586354 59.59528875 45.70703125 86.23046875 C45.79839355 86.86388184 45.88975586 87.49729492 45.98388672 88.14990234 C51.20588389 128.185214 43.02173869 170.8983242 18.359375 203.31640625 C16.50634573 205.64985051 14.63093301 207.95533696 12.70703125 210.23046875 C14.12777449 213.47608175 15.84465806 215.59308465 18.375 218.05859375 C19.10396484 218.77660156 19.83292969 219.49460937 20.58398438 220.234375 C21.72770508 221.34619141 21.72770508 221.34619141 22.89453125 222.48046875 C27.8621751 227.33178443 32.68888767 232.20584987 37.19262695 237.49511719 C38.63513138 239.14807889 40.13738273 240.69873161 41.70703125 242.23046875 C38.22611058 250.82460622 27.35640174 257.44227683 20.28515625 263.109375 C17.20885207 265.64033435 14.31698024 268.33742978 11.4609375 271.11328125 C9.70703125 272.23046875 9.70703125 272.23046875 7.6796875 272.125 C5.2770324 271.03547917 4.22903362 269.84965261 2.58203125 267.79296875 C-0.22652483 264.42390684 -3.16491887 261.30622601 -6.29296875 258.23046875 C-9.87219247 254.69997878 -13.24045364 251.10037935 -16.4296875 247.21484375 C-19.16581875 244.30089264 -22.22691403 241.78912978 -25.29296875 239.23046875 C-26.4325 239.689375 -27.57203125 240.14828125 -28.74609375 240.62109375 C-56.898964 251.68158034 -89.92622842 255.21817891 -119.29296875 246.23046875 C-120.32744141 245.91698486 -120.32744141 245.91698486 -121.3828125 245.59716797 C-153.12673405 235.5834309 -177.54937458 213.94411598 -193.453125 184.93359375 C-212.69871914 147.15558259 -214.63095412 100.32278422 -201.67285156 60.31591797 C-190.70148629 27.32802373 -168.32511238 0.06054341 -137.29296875 -15.76953125 C-94.24259535 -36.60381248 -36.69271852 -31.67472357 0 0 Z M-124.28515625 36.05859375 C-146.27807231 59.84859634 -149.42482972 91.86121151 -148.46142578 122.76269531 C-147.2571902 147.55249559 -139.28034003 171.87580175 -121.16796875 189.41796875 C-106.82974787 201.60915827 -89.5366288 204.44726647 -71.29296875 203.23046875 C-67.83457729 202.7711818 -64.67168393 202.11668913 -61.29296875 201.23046875 C-60.97297223 198.27997936 -60.97297223 198.27997936 -62.578125 196.6875 C-63.16464844 196.14480469 -63.75117187 195.60210937 -64.35546875 195.04296875 C-66.95748882 192.55589736 -69.39222607 190.02989797 -71.73046875 187.29296875 C-75.37704067 183.05797273 -79.29648428 179.13352891 -83.29296875 175.23046875 C-81.99280359 172.33415001 -80.65786452 170.37852569 -78.31640625 168.2421875 C-77.73189697 167.70408447 -77.1473877 167.16598145 -76.54516602 166.61157227 C-75.92569092 166.05268311 -75.30621582 165.49379395 -74.66796875 164.91796875 C-74.0349585 164.33909912 -73.40194824 163.76022949 -72.74975586 163.16381836 C-68.31846571 159.12304027 -63.84193259 155.13830345 -59.29296875 151.23046875 C-58.64457031 150.65296875 -57.99617188 150.07546875 -57.328125 149.48046875 C-56.69777344 148.92359375 -56.06742188 148.36671875 -55.41796875 147.79296875 C-54.86367187 147.29925781 -54.309375 146.80554688 -53.73828125 146.296875 C-52.29296875 145.23046875 -52.29296875 145.23046875 -50.29296875 145.23046875 C-48.91796875 146.62890625 -48.91796875 146.62890625 -47.29296875 148.60546875 C-44.41399857 152.00133128 -41.40250936 155.16877189 -38.23046875 158.29296875 C-34.3580225 162.11811794 -30.75856249 166.03527633 -27.29296875 170.23046875 C-23.89449651 167.52989706 -22.732353 163.86684563 -21.29296875 159.91796875 C-20.90105347 158.85642578 -20.90105347 158.85642578 -20.5012207 157.7734375 C-9.20374756 126.18986202 -10.94427065 86.05224738 -24.921875 55.5625 C-28.69939244 48.086346 -33.34755184 42.10312706 -39.29296875 36.23046875 C-39.9065625 35.59496094 -40.52015625 34.95945312 -41.15234375 34.3046875 C-48.36012306 27.35872923 -59.26661166 21.49733697 -69.29296875 20.23046875 C-70.31648438 20.09898437 -71.34 19.9675 -72.39453125 19.83203125 C-91.60654888 17.91508936 -109.88855002 22.88599048 -124.28515625 36.05859375 Z " fill="#216E70" transform="translate(2095.29296875,302.76953125)"/>
<path d="M0 0 C0.67933594 0.20898926 1.35867188 0.41797852 2.05859375 0.63330078 C34.15837422 10.75929486 57.679224 34.81621451 73.2121582 64.12817383 C77.57490643 72.77776684 80.61181732 82.02434335 83.74389648 91.17285156 C85.18215535 95.23013573 86.7705628 98.44183808 89.4375 101.875 C97.74174034 113.25163371 99.05431761 125.28503597 98 139 C96.43164309 148.00388033 92.81683764 155.01979483 87 162 C86.42636719 162.70898438 85.85273437 163.41796875 85.26171875 164.1484375 C76.85156609 173.54907923 64.70888339 178.22328933 52.36328125 179.2109375 C39.00326443 179.70645881 27.11839986 175.12715912 16.75 166.8125 C6.55417336 157.30614524 1.51828482 144.33704985 0.90234375 130.62109375 C1.20069613 119.5581876 4.14506262 108.08811938 11.8125 99.8125 C14.21132917 97.17443276 14.21132917 97.17443276 14.5625 93.9375 C12.73265968 81.12861776 7.71665101 68.90861952 -2.578125 60.62890625 C-19.7896072 49.05279645 -37.48706562 48.37741209 -57.484375 51.83984375 C-82.64260864 56.76900741 -103.90913086 68.53340858 -124 84 C-124.63276855 84.48645996 -125.26553711 84.97291992 -125.91748047 85.47412109 C-129.40244834 88.16624714 -132.85615399 90.89568667 -136.296875 93.64404297 C-138.66970217 95.53318891 -141.05744374 97.40305148 -143.44506836 99.2734375 C-156.20131918 109.26724309 -168.82505899 119.41331245 -181.16552734 129.91772461 C-184.54793135 132.79141745 -187.97440783 135.5984239 -191.4375 138.375 C-196.45175024 142.45091102 -201.18042287 146.78852794 -205.87866211 151.22021484 C-209.52907287 154.66125042 -213.25757079 157.9914428 -217.04174805 161.28466797 C-228.16016175 171.02384945 -238.60512196 181.5014079 -249.0625 191.9375 C-249.65076569 192.52317749 -250.23903137 193.10885498 -250.84512329 193.71228027 C-256.54440406 199.39178119 -262.20304664 205.05213161 -267.42749023 211.17797852 C-270.93958124 215.24733656 -274.69862238 219.09833951 -278.39453125 223 C-282.16263118 226.99434196 -285.83305102 231.05379722 -289.43261719 235.20068359 C-291.37968954 237.43587413 -293.37494469 239.62470003 -295.375 241.8125 C-298.50422827 245.27530082 -301.50500349 248.80679003 -304.4375 252.4375 C-308.29941675 257.21284402 -312.37674224 261.73667685 -316.53515625 266.25390625 C-318.92707297 268.91875166 -321.19254884 271.64831825 -323.4375 274.4375 C-327.09571015 278.97316443 -330.94742965 283.2570117 -334.91381836 287.51928711 C-337.90427 290.75193975 -340.73779007 294.06696766 -343.5 297.5 C-347.6141951 302.60956488 -351.9874395 307.42027861 -356.44140625 312.23046875 C-360.62574536 316.75977627 -364.68413522 321.3749505 -368.578125 326.15625 C-369.02986084 326.70796875 -369.48159668 327.2596875 -369.94702148 327.828125 C-370.84521438 328.92786126 -371.7381271 330.03193493 -372.62524414 331.140625 C-373.7063418 332.46412219 -374.84867432 333.73711991 -376 335 C-376.66 335 -377.32 335 -378 335 C-382.48651674 323.9100889 -386.65786763 312.69747857 -390.72058105 301.44622803 C-391.28191423 299.89859412 -391.8485724 298.35288126 -392.42053223 296.80914307 C-393.23391617 294.60956377 -394.02734068 292.40371303 -394.81640625 290.1953125 C-395.06703323 289.52927002 -395.31766022 288.86322754 -395.57588196 288.17700195 C-397.18271579 283.58662071 -397.18271579 283.58662071 -396.31591797 280.80371094 C-395.88166504 280.20848633 -395.44741211 279.61326172 -395 279 C-394.55857666 278.34789551 -394.11715332 277.69579102 -393.66235352 277.02392578 C-393.15631592 276.3379834 -392.65027832 275.65204102 -392.12890625 274.9453125 C-391.56034912 274.17292236 -390.99179199 273.40053223 -390.40600586 272.60473633 C-389.79764893 271.78642334 -389.18929199 270.96811035 -388.5625 270.125 C-387.93287354 269.27510498 -387.30324707 268.42520996 -386.65454102 267.54956055 C-377.59296203 255.36456533 -368.07787827 243.56225088 -358.47216797 231.80419922 C-357.17728489 230.21726954 -355.88709522 228.62651263 -354.59765625 227.03515625 C-349.03526065 220.18526221 -343.30854505 213.48594518 -337.54833984 206.80273438 C-336.02159309 205.02514087 -334.50358292 203.24047985 -332.98828125 201.453125 C-327.54741231 195.04536535 -322.01823787 188.74918269 -316.27148438 182.61303711 C-313.6596144 179.82111756 -311.10606897 176.99102045 -308.59765625 174.10546875 C-305.06652255 170.05115056 -301.43170134 166.10510867 -297.75 162.1875 C-297.1003125 161.49462891 -296.450625 160.80175781 -295.78125 160.08789062 C-291.06812902 155.08251903 -286.2417449 150.21529363 -281.3515625 145.3828125 C-278.68224359 142.67802091 -276.20955398 139.84897828 -273.73828125 136.96484375 C-269.26913155 131.91319813 -264.44962721 127.18125348 -259.3125 122.8125 C-255.33437521 119.40837317 -251.68025751 115.71851282 -248 112 C-243.7796725 107.74032858 -239.55581771 103.57306478 -234.9765625 99.6953125 C-232.49139806 97.5637683 -230.09559854 95.34316401 -227.6875 93.125 C-223.22611655 89.05582609 -218.64055282 85.20022184 -213.94140625 81.41015625 C-211.22321528 79.18290017 -208.55918792 76.90758279 -205.90478516 74.60546875 C-198.80958535 68.45434902 -191.52155341 62.62153679 -184 57 C-182.94619141 56.20722656 -182.94619141 56.20722656 -181.87109375 55.3984375 C-161.05856005 39.76226295 -139.6564366 25.01210388 -116 14 C-114.92588867 13.49919922 -114.92588867 13.49919922 -113.83007812 12.98828125 C-100.63935191 6.93238056 -87.07229351 2.524833 -73 -1 C-72.22317871 -1.1949707 -71.44635742 -1.38994141 -70.64599609 -1.59082031 C-48.96966667 -6.70320827 -21.23877755 -6.8066318 0 0 Z " fill="#FDBF1E" transform="translate(581,4)"/>
<path d="M0 0 C0 4 0 4 -2.24609375 6.453125 C-3.30058444 7.3959357 -4.36526344 8.32742135 -5.4375 9.25 C-6.63265885 10.31381535 -7.82660696 11.37899201 -9.01953125 12.4453125 C-9.66229004 13.01540039 -10.30504883 13.58548828 -10.96728516 14.17285156 C-13.83641447 16.75182871 -16.63728475 19.399729 -19.43579102 22.05493164 C-20.89553273 23.43523163 -22.36352428 24.80685876 -23.83959961 26.16967773 C-27.04353716 29.13406855 -30.13282701 32.06233166 -32.9296875 35.41796875 C-35.56435645 38.38497436 -37.46011234 40.21483449 -41 42 C-43.84460135 41.59579584 -45.96480012 41.07638784 -48.625 40.1328125 C-49.36327026 39.89316269 -50.10154053 39.65351288 -50.86218262 39.40660095 C-53.24939279 38.62646374 -55.62395705 37.81343716 -58 37 C-59.5752891 36.48095566 -61.15146439 35.96459317 -62.72851562 35.45092773 C-65.97248052 34.39133652 -69.21263205 33.32118022 -72.44995117 32.24145508 C-89.14649786 26.68096383 -105.73187892 21.51001582 -123 18 C-124.20785156 17.73832031 -125.41570312 17.47664063 -126.66015625 17.20703125 C-143.12736982 14.10511618 -162.35339045 13.86145871 -176.75390625 23.28515625 C-189.68648815 33.15890139 -194.82208499 49.72681837 -196.984375 65.27539062 C-206.45646895 142.37544945 -166.14156582 226.95165077 -134 295 C-133.5359375 295.98983887 -133.071875 296.97967773 -132.59375 297.99951172 C-120.75905786 323.21809008 -107.92825956 347.95341806 -94.46240234 372.33691406 C-92.35417944 376.17606188 -90.28079585 380.03373867 -88.2043457 383.89013672 C-82.38052253 394.69949894 -76.41552613 405.41972772 -70.34765625 416.09375 C-67.96229847 420.29209331 -65.59801987 424.50158645 -63.24609375 428.71875 C-62.30817993 430.40013062 -62.30817993 430.40013062 -61.35131836 432.11547852 C-60.15133719 434.26873498 -58.95283898 436.42281881 -57.75610352 438.57788086 C-55.29722602 442.98681541 -52.81678514 447.34578221 -50.09375 451.59765625 C-48 455 -48 455 -48 457 C-55.82990699 457.49428984 -63.66080262 457.93251418 -71.49755192 458.30042458 C-75.13719423 458.47303535 -78.77375174 458.66443951 -82.40991211 458.89990234 C-85.92295307 459.12668195 -89.43529596 459.30263928 -92.95275688 459.44440842 C-94.93927661 459.5374983 -96.92315363 459.68234113 -98.9065094 459.82803345 C-107.7502933 460.1235911 -107.7502933 460.1235911 -111.30841064 456.92454529 C-113.13073856 454.36175298 -114.59642642 451.81068622 -116 449 C-116.9273999 447.52817261 -116.9273999 447.52817261 -117.87353516 446.02661133 C-118.34065918 445.2198999 -118.8077832 444.41318848 -119.2890625 443.58203125 C-119.83127441 442.64987793 -120.37348633 441.71772461 -120.93212891 440.75732422 C-121.7701001 439.29963623 -121.7701001 439.29963623 -122.625 437.8125 C-123.22618652 436.77367676 -123.82737305 435.73485352 -124.44677734 434.66455078 C-126.30478238 431.4469587 -128.15424658 428.22463398 -130 425 C-130.56589844 424.0114502 -131.13179688 423.02290039 -131.71484375 422.00439453 C-146.45570242 396.19488522 -160.73144576 370.08917045 -173.81982422 343.39746094 C-174.68349345 341.64296531 -175.55315563 339.89141628 -176.42626953 338.14160156 C-212.48040237 265.81015957 -242.96743467 185.93369614 -251 105 C-251.07057617 104.30100586 -251.14115234 103.60201172 -251.21386719 102.88183594 C-254.79551849 65.60613159 -251.81422379 21.4951941 -227.5625 -8.9375 C-226.06548345 -10.64616372 -224.54476822 -12.33438257 -223 -14 C-222.24203125 -14.83789062 -221.4840625 -15.67578125 -220.703125 -16.5390625 C-164.89964196 -75.44273904 -58.52223018 -32.32399679 0 0 Z " fill="#136C6E" transform="translate(322,84)"/>
<path d="M0 0 C3.81982284 0.69882568 6.82701119 2.41114576 10.20703125 4.28125 C10.80535767 4.61108887 11.40368408 4.94092773 12.0201416 5.28076172 C13.95371691 6.3488915 15.88324205 7.4240947 17.8125 8.5 C19.13105292 9.23121103 20.44965648 9.96233077 21.76831055 10.69335938 C30.62258541 15.61466638 39.39608719 20.65041691 48 26 C40.68297069 111.55372075 15.43349832 196.68100797 -48 357 C-48.42168457 357.89251465 -48.84336914 358.7850293 -49.27783203 359.70458984 C-69.76737323 403.01983162 -96.41545977 444.5650804 -143.0859375 461.80859375 C-166.4218192 469.32078848 -191.45263682 465.72455334 -213.06835938 455.01367188 C-236.03179378 442.96309305 -255.56915538 423.53085769 -270.9921875 402.91796875 C-271.63866745 402.05427673 -272.2851474 401.19058472 -272.95121765 400.30072021 C-280.30192464 390.37899901 -287.06903763 380.08931951 -293.8125 369.75 C-295.05608566 367.85640625 -296.30022546 365.96317631 -297.54492188 364.0703125 C-303.06488405 355.66066221 -308.53828581 347.22309635 -313.88671875 338.703125 C-314.30919388 338.03198669 -314.73166901 337.36084839 -315.16694641 336.66937256 C-318 332.12303836 -318 332.12303836 -318 331 C-312.85146568 330.19201371 -307.76900179 329.73434797 -302.56640625 329.46484375 C-301.77080795 329.42186661 -300.97520966 329.37888947 -300.15550232 329.33460999 C-298.47557821 329.24484665 -296.79556733 329.15669416 -295.11547852 329.07006836 C-292.60075182 328.9394863 -290.08653721 328.8011463 -287.57226562 328.66210938 C-283.50193563 328.4423306 -279.4312494 328.25636211 -275.3581543 328.09603882 C-273.79403307 328.032338 -272.23019212 327.96130622 -270.66674805 327.88272095 C-268.47713441 327.77688649 -266.28885204 327.70422466 -264.09765625 327.640625 C-262.84863525 327.59325195 -261.59961426 327.54587891 -260.31274414 327.49707031 C-255.48875887 328.22943155 -253.44120149 330.7865491 -250.54760742 334.52954102 C-250.21607666 335.05733154 -249.8845459 335.58512207 -249.54296875 336.12890625 C-247.15351818 339.79914079 -244.59334133 343.31270769 -241.98364258 346.82910156 C-240.78082933 348.45029175 -239.58408955 350.07600478 -238.39331055 351.70605469 C-229.90236707 363.32220908 -220.83871553 374.49491728 -211 385 C-210.45601563 385.6084375 -209.91203125 386.216875 -209.3515625 386.84375 C-199.25433669 397.67979721 -185.02124052 406.49911498 -170 407.125 C-154.91474989 406.49644791 -143.43890065 398.25576204 -133 388 C-132.45577393 387.47623779 -131.91154785 386.95247559 -131.35083008 386.4128418 C-72.25699326 328.75500538 -50.26379461 223.21149136 -30.61987305 145.4508667 C-30.03009687 143.11899762 -29.43648042 140.78814119 -28.84179688 138.45751953 C-19.42380194 101.45604579 -11.65452461 64.02472864 -4.3125 26.5625 C-4.1458786 25.71619019 -3.9792572 24.86988037 -3.80758667 23.9979248 C-2.24383077 16.02572799 -0.69787851 8.10469581 0 0 Z " fill="#216E70" transform="translate(595,325)"/>
<path d="M0 0 C5.76461549 1.65894985 11.37525766 3.42577484 16.9140625 5.75 C17.82665833 6.13127296 17.82665833 6.13127296 18.75769043 6.52024841 C20.71600187 7.34094181 22.67071524 8.16976803 24.625 9 C25.64494049 9.43084396 25.64494049 9.43084396 26.68548584 9.87039185 C39.57946431 15.31905261 52.34478524 21.01596858 65 27 C66.640896 27.7741626 66.640896 27.7741626 68.31494141 28.56396484 C95.0564196 41.22222781 121.51632518 54.51100682 147.12646484 69.34033203 C150.2503267 71.14458121 153.38429447 72.9304393 156.51953125 74.71484375 C158.76328111 75.99694045 161.00677564 77.27948409 163.25 78.5625 C164.24249756 79.12727051 165.23499512 79.69204102 166.25756836 80.27392578 C182.77069383 89.77088277 198.66139414 100.30424645 214.5 110.875 C215.34963318 111.44138184 216.19926636 112.00776367 217.074646 112.59130859 C229.29825768 120.74861927 241.34856776 129.03735981 253 138 C254.13451305 138.8553665 255.26990005 139.70957533 256.40625 140.5625 C268.50542571 149.6912194 280.31018299 159.29682578 291.41015625 169.62109375 C293.47337829 171.51627056 295.56421288 173.34974901 297.6875 175.17578125 C309.74131967 185.693399 321.30134094 197.26457881 331 210 C331.88118829 211.09480969 332.76551708 212.1870963 333.65234375 213.27734375 C340.03703707 221.16840155 345.79812148 229.28281775 351 238 C351.34659668 238.57266602 351.69319336 239.14533203 352.05029297 239.73535156 C364.78430577 261.06437441 371.23952834 285.91756286 366.28125 310.57421875 C356.10502289 346.93668545 320.15255457 369.66205611 289.25 387.25 C213.0643531 430 213.0643531 430 195 430 C196.84859094 419.18516737 199.40660871 408.60906137 202.15576172 397.99194336 C202.71987062 395.78395783 203.26832877 393.5719162 203.80126953 391.35620117 C204.57990337 388.12637453 205.40921403 384.91335047 206.25 381.69921875 C206.47647217 380.71475266 206.70294434 379.73028656 206.9362793 378.71598816 C208.43363351 373.24252329 209.94863446 370.51600893 214.86621094 367.51928711 C216.56205079 366.64879923 218.27232146 365.80544946 220 365 C221.04704102 364.44425293 222.09408203 363.88850586 223.17285156 363.31591797 C224.51814941 362.66067139 224.51814941 362.66067139 225.890625 361.9921875 C226.91881348 361.48655273 227.94700195 360.98091797 229.00634766 360.45996094 C230.07675293 359.93692383 231.1471582 359.41388672 232.25 358.875 C243.51053526 353.30810196 254.58047503 347.46504945 265.5546875 341.35498047 C267.86174831 340.07660712 270.17859736 338.81849731 272.5 337.56640625 C280.89688627 333.00372797 288.61476626 328.11572421 296 322 C296.74894531 321.38898438 297.49789063 320.77796875 298.26953125 320.1484375 C305.88712979 313.30279445 311.28170903 302.9702671 312.203125 292.74609375 C312.76584056 265.03235222 291.31083365 241.34900701 273.41015625 222.50390625 C269.14925526 218.08305976 264.66566282 213.98917658 260 210 C258.90949909 209.04762695 257.8197007 208.09444911 256.73046875 207.140625 C249.63023041 200.95232569 242.37496702 195.01524251 234.83154297 189.37207031 C233.55673793 188.41707107 232.28515954 187.45775577 231.01611328 186.49511719 C201.30213354 163.96678105 169.4520227 144.29920532 137 126 C135.2969873 125.03924561 135.2969873 125.03924561 133.55957031 124.05908203 C77.48248833 92.49846497 19.15196119 66.18751365 -40 41 C-38.88860065 37.66580195 -38.05102421 36.96107992 -35.41015625 34.77905273 C-31.21309871 31.21593062 -27.3131044 27.44217271 -23.4375 23.53515625 C-22.76074219 22.85698349 -22.08398438 22.17881073 -21.38671875 21.48008728 C-19.25542325 19.34325695 -17.12765782 17.20295177 -15 15.0625 C-13.54320221 13.60067877 -12.08617299 12.13908813 -10.62890625 10.67773438 C-7.08326027 7.121146 -3.54077261 3.56143984 0 0 Z " fill="#216E70" transform="translate(429,145)"/>
<path d="M0 0 C2.96022049 6.9951612 5.87718976 14.0072092 8.76464844 21.03271484 C9.75214373 23.42094721 10.74950197 25.80512602 11.75683594 28.18505859 C13.2025295 31.60539278 14.61221242 35.03870153 16.015625 38.4765625 C16.47374573 39.53928375 16.93186646 40.602005 17.40386963 41.69692993 C18.52180007 44.48838454 19.48602454 47.03722609 20 50 C18.39306641 53.54321289 18.39306641 53.54321289 16 56 C14.85917969 57.40185547 14.85917969 57.40185547 13.6953125 58.83203125 C12.84710938 59.81558594 11.99890625 60.79914063 11.125 61.8125 C10.14645306 62.96035614 9.16862422 64.10882474 8.19140625 65.2578125 C6.56776221 67.16244264 4.94325845 69.06629992 3.31591797 70.96777344 C-12.82648539 89.9002782 -33.22380988 113.96018065 -32.27734375 140.34765625 C-31.02402162 152.33365236 -24.2611358 162.46186621 -15 170 C55.48009525 220.83661064 173.9080887 211.91395597 368.49316406 196.12695312 C373.62905085 195.27720931 378.75393074 194.37209319 383.875 193.4375 C385.00222473 193.23379288 385.00222473 193.23379288 386.15222168 193.02597046 C395.34409403 191.34431565 404.31987058 189.20735236 413.29611206 186.60313416 C418.82392263 185 418.82392263 185 421 185 C418.04512203 195.01955065 414.81332377 204.93236151 411.43212891 214.81567383 C410.72465944 216.90491448 410.03072414 218.99878487 409.35009766 221.09692383 C408.35798912 224.14866872 407.32092488 227.18173018 406.2734375 230.21484375 C405.83226089 231.62104225 405.83226089 231.62104225 405.38217163 233.0556488 C403.15881432 239.284755 403.15881432 239.284755 400.0241394 241.21954346 C397.68318983 242.0490036 395.44545179 242.57404415 393 243 C392.30850861 243.14140915 391.61701721 243.2828183 390.90457153 243.42851257 C388.8034282 243.82429777 386.70381893 244.1370547 384.5859375 244.4296875 C383.79490128 244.54508377 383.00386505 244.66048004 382.18885803 244.77937317 C379.58558308 245.15487716 376.98061488 245.51611415 374.375 245.875 C373.01026047 246.06625961 373.01026047 246.06625961 371.61795044 246.26138306 C323.25444135 253.01886923 274.50690442 257.24318516 225.6875 258.5625 C224.54237442 258.59376984 224.54237442 258.59376984 223.37411499 258.62567139 C150.54442207 260.57270323 72.81955294 259.19504498 3 236 C2.04818848 235.68417969 1.09637695 235.36835937 0.11572266 235.04296875 C-12.08667351 230.92975547 -23.69895912 226.17611309 -35 220 C-36.05316406 219.43667969 -37.10632812 218.87335938 -38.19140625 218.29296875 C-59.62312049 206.36162328 -78.8020011 188.24236263 -85.84619141 164.09985352 C-87.78440123 156.15594959 -88.54485722 148.66804017 -88.5 140.5 C-88.49500488 139.28675049 -88.49000977 138.07350098 -88.48486328 136.82348633 C-88.27285454 125.71349725 -86.44495685 115.54198219 -83 105 C-82.78069824 104.32759277 -82.56139648 103.65518555 -82.33544922 102.96240234 C-73.44504455 76.78398979 -56.70484915 53.68166988 -38.23828125 33.4609375 C-36.76015954 31.83577751 -35.29872739 30.19526094 -33.85546875 28.5390625 C-25.97815834 19.54047728 -17.30440799 11.64121911 -7.875 4.3125 C-7.0401709 3.66087891 -7.0401709 3.66087891 -6.18847656 2.99609375 C-2.24998404 0 -2.24998404 0 0 0 Z " fill="#216E70" transform="translate(88,366)"/>
<path d="M0 0 C22.11 0 44.22 0 67 0 C75.03124801 20.6517806 75.03124801 20.6517806 78.64453125 30.90625 C79.05166351 32.05404434 79.45879578 33.20183868 79.87826538 34.38441467 C80.96652238 37.45320353 82.05254397 40.52277217 83.13775253 43.59263992 C84.99837979 48.85221677 86.86659138 54.10910979 88.73350716 59.36645699 C89.20847835 60.7041046 89.68335586 62.04178548 90.15814018 63.37949944 C94.79844497 76.45354028 99.48203641 89.51177292 104.1875 102.5625 C104.73739594 104.08807526 104.73739594 104.08807526 105.29840088 105.64447021 C107.1383537 110.74874146 108.97906701 115.85273789 110.8203125 120.95654297 C114.44724335 131.01106165 118.06717706 141.06810058 121.6875 151.125 C122.04830658 152.12719574 122.40911316 153.12939148 122.78085327 154.16195679 C129.27656375 172.20511676 135.76621157 190.25045477 142.25296402 208.29683685 C142.98386044 210.3301017 143.71485989 212.36332947 144.44589233 214.39654541 C147.40428319 222.62499021 150.35980362 230.85445998 153.31268311 239.08488464 C154.02463815 241.06865087 154.73712582 243.05222521 155.44970703 245.0357666 C156.63853305 248.3453527 157.82568941 251.65553339 159.01165771 254.96614456 C159.67485826 256.81629545 160.33961139 258.66588957 161.00439453 260.51547241 C161.39868652 261.61718781 161.79297852 262.7189032 162.19921875 263.85400391 C162.72261841 265.31333847 162.72261841 265.31333847 163.2565918 266.80215454 C164 269 164 269 164 270 C143.54 270 123.08 270 102 270 C99.02468889 262.85925334 96.14056012 255.88260292 93.66796875 248.5859375 C93.3864949 247.76421051 93.10502106 246.94248352 92.8150177 246.09585571 C92.2309396 244.38764535 91.64880324 242.67876984 91.06860352 240.96923828 C90.17680034 238.34349693 89.27728664 235.72048339 88.37695312 233.09765625 C87.80683949 231.42723759 87.23716145 229.75667019 86.66796875 228.0859375 C86.39929489 227.30270111 86.13062103 226.51946472 85.85380554 225.7124939 C84 220.23072327 84 220.23072327 84 218 C48.03 218 12.06 218 -25 218 C-25.99 221.63 -26.98 225.26 -28 229 C-29.07623513 232.27897538 -30.17239505 235.53607369 -31.3203125 238.7890625 C-31.62444061 239.6589682 -31.92856873 240.5288739 -32.24191284 241.42514038 C-32.87705344 243.23898499 -33.51403948 245.0521844 -34.15283203 246.86474609 C-35.13435188 249.65155259 -36.1085646 252.44084026 -37.08203125 255.23046875 C-37.70269805 257.0001498 -38.32377646 258.76968655 -38.9453125 260.5390625 C-39.23697296 261.37434479 -39.52863342 262.20962708 -39.82913208 263.07022095 C-41.88465748 268.88465748 -41.88465748 268.88465748 -43 270 C-44.71865409 270.0935919 -46.44115744 270.11744611 -48.16235352 270.11352539 C-49.26341934 270.11344986 -50.36448517 270.11337433 -51.49891663 270.11329651 C-52.6968132 270.10813522 -53.89470978 270.10297394 -55.12890625 270.09765625 C-56.34827377 270.0962413 -57.5676413 270.09482635 -58.82395935 270.09336853 C-62.7368307 270.08774967 -66.64964581 270.07519396 -70.5625 270.0625 C-73.20768147 270.05748743 -75.85286383 270.0529241 -78.49804688 270.04882812 C-84.99871726 270.03777411 -91.49935461 270.02101764 -98 270 C-95.8712259 262.57349075 -93.3900519 255.31597328 -90.74609375 248.05859375 C-90.1271096 246.3497274 -90.1271096 246.3497274 -89.49562073 244.6063385 C-88.37838022 241.52416425 -87.25861079 238.44292467 -86.13751221 235.3621521 C-85.191602 232.76141449 -84.24781858 230.15990703 -83.3039608 227.558424 C-76.88658302 209.87257455 -70.4171549 192.20603285 -63.91390991 174.55157471 C-57.86237316 158.12179861 -51.88337002 141.66638097 -45.93218994 125.20002365 C-38.66091855 105.08143807 -31.34843713 84.97979964 -23.92605591 64.91648865 C-20.20990932 54.86942241 -16.50957283 44.81652576 -12.80712891 34.7644043 C-8.53880443 23.17600487 -4.26928056 11.58804723 0 0 Z M29 58 C28.69291359 58.90912895 28.69291359 58.90912895 28.37962341 59.83662415 C25.73545228 67.66300082 23.08776477 75.48818479 20.4375 83.3125 C20.22393608 83.94302654 20.01037216 84.57355309 19.79033661 85.22318649 C13.22838668 104.59323021 6.58897283 123.93424948 -0.18969727 143.22973633 C-2.79307575 150.64193457 -5.38953917 158.05660393 -7.9140625 165.49609375 C-8.31834473 166.68259521 -8.72262695 167.86909668 -9.13916016 169.09155273 C-10.14190439 171.97391238 -10.14190439 171.97391238 -10 175 C16.07 175 42.14 175 69 175 C67.70163603 169.15736214 66.37166171 163.69244255 64.453125 158.07885742 C64.20554947 157.34223373 63.95797394 156.60561005 63.70289612 155.84666443 C62.88980129 153.43137446 62.07005199 151.01840457 61.25 148.60546875 C60.67113085 146.89190365 60.09260586 145.17822224 59.5144043 143.46443176 C58.30009143 139.86844992 57.08265888 136.27354514 55.86279297 132.67944336 C54.32968663 128.16212793 52.80266312 123.64278794 51.277771 119.12269402 C44.37851845 98.6773427 37.36332891 78.283549 30 58 C29.67 58 29.34 58 29 58 Z " fill="#216E70" transform="translate(1009,279)"/>
<path d="M0 0 C2.30793537 0.00316156 4.61458473 -0.02041527 6.92236328 -0.0456543 C28.1838171 -0.13646443 50.32205239 4.46903829 66.25439453 19.56567383 C82.16591371 36.51490078 85.5758447 57.16899176 85.59960938 79.60766602 C85.60469009 80.67757782 85.60977081 81.74748962 85.61500549 82.849823 C85.62563488 85.15393022 85.63428361 87.4580473 85.64112473 89.76216888 C85.65302457 93.42175987 85.67250421 97.08123862 85.69424438 100.74078369 C85.75549341 111.13940649 85.80982158 121.53801498 85.84326172 131.93676758 C85.86432112 138.31677356 85.89970776 144.69656919 85.94401932 151.07645416 C85.9580828 153.49227662 85.96687967 155.90813622 85.9700737 158.3239975 C85.97831285 175.42751765 85.97831285 175.42751765 88.70474243 192.25006104 C89.5007663 195.56050532 89.96038243 198.94508909 90.44189453 202.31567383 C72.29189453 202.31567383 54.14189453 202.31567383 35.44189453 202.31567383 C33.79189453 195.38567383 32.14189453 188.45567383 30.44189453 181.31567383 C28.13189453 183.95567383 25.82189453 186.59567383 23.44189453 189.31567383 C9.23456537 201.83667312 -7.73207697 206.91538126 -26.37060547 206.75317383 C-27.60238525 206.74487549 -28.83416504 206.73657715 -30.10327148 206.72802734 C-47.07948939 206.41300937 -61.84554199 201.97587161 -74.49560547 190.12817383 C-79.57925107 184.71893812 -82.857911 179.20392502 -85.55810547 172.31567383 C-85.89583984 171.51387695 -86.23357422 170.71208008 -86.58154297 169.88598633 C-91.36531202 156.14910822 -90.05430969 137.67711881 -84.33935547 124.50708008 C-75.9306236 107.66625875 -60.80441642 97.56327339 -43.39892578 91.57250977 C-20.30986188 84.23016702 4.27983815 81.61869143 28.44189453 82.31567383 C28.07936942 66.42539782 28.07936942 66.42539782 21.19189453 52.37817383 C9.26294222 43.4314596 -5.56393482 43.85499015 -19.89160156 45.59985352 C-33.16930802 47.99182865 -46.47262201 54.43818897 -57.51904297 62.03051758 C-59.55810547 63.31567383 -59.55810547 63.31567383 -61.55810547 63.31567383 C-63.0619617 61.41099641 -64.44116283 59.50385608 -65.80810547 57.50317383 C-66.69455274 56.23254334 -67.58267351 54.96307927 -68.47216797 53.69458008 C-68.9584668 52.99993652 -69.44476562 52.30529297 -69.94580078 51.58959961 C-72.9658832 47.33020415 -76.07867243 43.13876782 -79.18310547 38.94067383 C-79.81120117 38.09013428 -80.43929687 37.23959473 -81.08642578 36.36328125 C-82.57606693 34.34673015 -84.06660413 32.33084924 -85.55810547 30.31567383 C-83.62125654 25.85675791 -80.54359409 24.01563358 -76.49560547 21.56567383 C-75.78170654 21.13029297 -75.06780762 20.69491211 -74.33227539 20.24633789 C-63.32273357 13.66105652 -52.20337066 8.53155039 -39.87060547 4.94067383 C-38.64337769 4.58247559 -38.64337769 4.58247559 -37.39135742 4.21704102 C-25.047301 0.84460136 -12.72676943 -0.0362854 0 0 Z M-27.55810547 131.31567383 C-31.50689176 135.86607576 -32.82285965 141.39943627 -32.55810547 147.31567383 C-31.29840293 153.06693868 -28.74641147 157.97809371 -23.93310547 161.50708008 C-15.4821181 166.24425464 -4.27740312 165.38963083 4.95751953 163.65551758 C14.43513084 160.84868654 21.61761944 155.70504031 26.56689453 147.11254883 C28.31181347 143.52923316 28.56034012 140.70189085 28.53955078 136.77270508 C28.53632813 135.69956055 28.53310547 134.62641602 28.52978516 133.52075195 C28.52140625 132.40120117 28.51302734 131.28165039 28.50439453 130.12817383 C28.49988281 128.99702148 28.49537109 127.86586914 28.49072266 126.70043945 C28.47892951 123.90546456 28.46247103 121.11059563 28.44189453 118.31567383 C9.72457463 117.60985311 -12.69161693 118.45817023 -27.55810547 131.31567383 Z " fill="#216E70" transform="translate(2491.55810546875,346.684326171875)"/>
<path d="M0 0 C1.41583084 1.20607812 2.8117589 2.43588592 4.1875 3.6875 C4.93515625 4.33203125 5.6828125 4.9765625 6.453125 5.640625 C19.0006323 17.16384599 24.23177601 32.09667862 26.1875 48.6875 C26.33938529 52.3359311 26.35163142 55.98179758 26.36108398 59.63305664 C26.367771 60.7137442 26.37445801 61.79443176 26.38134766 62.90786743 C26.39535912 65.24751236 26.40726546 67.58717063 26.41729546 69.92683601 C26.43378369 73.64043631 26.45702694 77.35393858 26.48219299 81.06748962 C26.5527367 91.62396523 26.61289471 102.1804768 26.66430664 112.73706055 C26.6962709 119.20318242 26.73759179 125.66919162 26.78450203 132.13522148 C26.80042029 134.58815911 26.81278821 137.04112263 26.82140923 139.49409676 C26.63197999 159.80561159 26.63197999 159.80561159 30.3125 179.6875 C31.1875 182.6875 31.1875 182.6875 31.1875 188.6875 C13.3675 188.6875 -4.4525 188.6875 -22.8125 188.6875 C-24.68952696 183.68209478 -26.2822683 179.29037568 -27.5 174.1875 C-27.75136719 173.1459375 -28.00273437 172.104375 -28.26171875 171.03125 C-28.44347656 170.2578125 -28.62523438 169.484375 -28.8125 168.6875 C-29.38355469 169.3165625 -29.95460938 169.945625 -30.54296875 170.59375 C-42.08529144 182.7783323 -57.50598673 191.87574804 -74.65234375 192.84863281 C-78.03916384 192.89454494 -81.4253946 192.92278944 -84.8125 192.9375 C-86.54693359 192.9684375 -86.54693359 192.9684375 -88.31640625 193 C-105.9893749 193.07898533 -121.60240806 187.923748 -134.40625 175.40234375 C-144.85948582 163.60851438 -148.64601854 148.8564272 -148.125 133.33984375 C-146.77399157 117.5499327 -141.60076714 104.04942166 -129.8046875 93.1484375 C-102.75975613 70.90521718 -63.38104988 68.29514033 -29.8125 68.6875 C-30.62698924 51.54556773 -30.62698924 51.54556773 -39 37.25 C-46.4333635 31.84607254 -54.41199132 31.15749435 -63.375 31.25 C-64.43420654 31.25974854 -65.49341309 31.26949707 -66.5847168 31.27954102 C-86.5162254 31.72643583 -102.77113817 40.04862941 -119.8125 49.6875 C-125.51194787 42.38735613 -131.08346813 35.02350863 -136.41162109 27.44677734 C-138.23692247 24.85796113 -140.06193821 22.40574256 -142.1640625 20.03125 C-143.8125 17.6875 -143.8125 17.6875 -143.84375 15.60546875 C-137.23965215 3.32284738 -113.68815501 -4.28706286 -101.1875 -8.09765625 C-71.095387 -16.73249487 -26.58257565 -19.73139636 0 0 Z M-86.2890625 117.94921875 C-90.74421134 123.03265781 -91.31218821 127.50171664 -91.08984375 134.07421875 C-90.43435677 140.25056789 -87.30828642 143.50234254 -82.82421875 147.390625 C-77.55796716 150.78556777 -72.19652161 151.07529292 -66.125 151.0625 C-65.33061523 151.06088867 -64.53623047 151.05927734 -63.71777344 151.05761719 C-53.84874257 150.85293212 -45.25791723 147.85064938 -38.00390625 140.97265625 C-31.34199208 133.97833888 -29.44812834 126.99812021 -29.54882812 117.43164062 C-29.57396484 116.50544922 -29.59910156 115.57925781 -29.625 114.625 C-29.63853516 113.66400391 -29.65207031 112.70300781 -29.66601562 111.71289062 C-29.70097694 109.37048248 -29.75003896 107.02930844 -29.8125 104.6875 C-48.31959094 104.04023128 -72.21434243 104.0823532 -86.2890625 117.94921875 Z " fill="#216E70" transform="translate(3114.8125,360.3125)"/>
<path d="M0 0 C1.06476562 -0.020625 2.12953125 -0.04125 3.2265625 -0.0625 C19.50116792 -0.14150294 33.76810932 5.33788979 45.59375 16.68359375 C64.97713833 38.48990562 64.34028431 67.47022077 64.17918181 94.84077048 C64.16015966 98.62965454 64.15864482 102.41854931 64.15510559 106.20747375 C64.14585886 113.3503092 64.12134737 120.49300344 64.09105712 127.63577729 C64.05728048 135.78114565 64.04096923 143.9265215 64.02597082 152.07194269 C63.99478924 168.79805699 63.9398721 185.52397727 63.875 202.25 C45.395 202.25 26.915 202.25 7.875 202.25 C7.82601562 193.79632812 7.77703125 185.34265625 7.7265625 176.6328125 C7.68662337 170.55982669 7.64549631 164.48685792 7.60266876 158.41389275 C7.54749784 150.56843196 7.49502976 142.72298548 7.453125 134.87744141 C7.41991124 128.66075072 7.37992472 122.4441444 7.33220994 116.22754753 C7.30723262 112.94391604 7.28638295 109.6603474 7.27165604 106.37665176 C7.22223869 89.12252808 7.22223869 89.12252808 6.00927734 71.92138672 C5.90101592 70.87908999 5.90101592 70.87908999 5.7905674 69.81573677 C4.85582017 62.28120053 2.34594908 55.37204952 -3.37890625 50.22265625 C-11.86992425 44.2775448 -21.08014291 44.40979934 -31.125 45.25 C-38.77104841 46.7610048 -45.16330679 50.18088293 -50.125 56.25 C-56.70191887 66.89904236 -58.42074767 76.43315598 -58.44384766 88.72460938 C-58.45891609 90.56978653 -58.45891609 90.56978653 -58.47428894 92.45223999 C-58.49976897 95.80293564 -58.51669179 99.1534642 -58.52971697 102.50421715 C-58.54541595 106.0142936 -58.57218435 109.52428579 -58.5977478 113.03430176 C-58.64441638 119.67095574 -58.68121791 126.30762578 -58.71442068 132.9443593 C-58.75648891 141.24681866 -58.81182385 149.54918298 -58.8671875 157.8515625 C-58.96581785 172.65098934 -59.04447547 187.45043899 -59.125 202.25 C-77.935 202.25 -96.745 202.25 -116.125 202.25 C-116.125 137.24 -116.125 72.23 -116.125 5.25 C-97.975 5.25 -79.825 5.25 -61.125 5.25 C-60.795 13.83 -60.465 22.41 -60.125 31.25 C-58.4234375 28.775 -58.4234375 28.775 -56.6875 26.25 C-46.29796568 12.05764139 -32.5189061 4.46292547 -15.5 0.6640625 C-10.33663354 0.03059393 -5.19747598 0.02463259 0 0 Z " fill="#216E70" transform="translate(2741.125,346.75)"/>
<path d="M0 0 C18.48 0 36.96 0 56 0 C56.03738281 9.16136719 56.07476563 18.32273437 56.11328125 27.76171875 C56.14357339 33.58139507 56.1746093 39.40105186 56.20898438 45.22070312 C56.26335387 54.44863062 56.31477163 63.67650393 56.34643555 72.90454102 C56.36951609 79.62697943 56.40302482 86.34927414 56.44870156 93.07159835 C56.4724993 96.62616513 56.49131559 100.18059078 56.49761391 103.73523521 C56.50486692 107.71781792 56.53541717 111.69991386 56.56762695 115.68237305 C56.56619186 116.84187973 56.56475677 118.00138641 56.5632782 119.19602966 C56.68630643 130.02192124 57.84269946 141.39849638 65 150 C70.31530156 155.17901178 75.91305031 156.29834616 83.1875 156.375 C92.54803876 156.23720993 102.24663622 153.93954674 109 147 C117.71140895 135.26122198 119.13154041 123.2797018 119.20532227 109.09790039 C119.21522186 107.91669617 119.22512146 106.73549194 119.23532104 105.51849365 C119.26139531 102.29794904 119.28330369 99.07740915 119.30332303 95.85682225 C119.32528457 92.48422872 119.35262321 89.11167877 119.37937927 85.73912048 C119.42916936 79.36096181 119.47415858 72.98277877 119.51740164 66.60457271 C119.57175116 58.62632315 119.63254703 50.64812435 119.69335938 42.66992188 C119.80174522 28.44665368 119.90041756 14.2233386 120 0 C138.48 0 156.96 0 176 0 C176 65.01 176 130.02 176 197 C158.18 197 140.36 197 122 197 C121.505 184.13 121.505 184.13 121 171 C119.865625 172.65 118.73125 174.3 117.5625 176 C113.57749297 181.46796379 109.33307875 185.85310425 104 190 C103.39929687 190.47050781 102.79859375 190.94101562 102.1796875 191.42578125 C86.61380872 202.30841944 64.66120159 202.90423863 46.53027344 200.69970703 C33.83526184 198.34822423 21.88276084 190.68191506 14.05859375 180.46484375 C3.14324658 164.08003536 -0.16722102 146.57727382 -0.11352539 127.26196289 C-0.113243 125.8717855 -0.11340227 124.48160797 -0.1139679 123.09143066 C-0.11425384 119.33368737 -0.10839 115.57597625 -0.10139394 111.8182404 C-0.09512653 107.88513049 -0.09455392 103.95201978 -0.09336853 100.01890564 C-0.09026519 92.57823695 -0.08206526 85.13758302 -0.07201904 77.69692081 C-0.06082691 69.22291933 -0.05533965 60.74891713 -0.05032361 52.27491009 C-0.0398818 34.84993 -0.02154873 17.42497014 0 0 Z " fill="#216E70" transform="translate(2187,352)"/>
<path d="M0 0 C20.93221421 16.3749003 32.39810909 39.72002717 35.8515625 65.81640625 C37.0296105 77.85715262 37.77250748 90.15410996 37.1875 102.25 C36.1875 103.25 36.1875 103.25 34.14351559 103.37304783 C33.23739308 103.37212604 32.33127058 103.37120424 31.39768982 103.37025452 C30.36137421 103.37162918 29.32505859 103.37300385 28.25733948 103.37442017 C27.11079391 103.37082489 25.96424835 103.36722961 24.78295898 103.36352539 C23.58312378 103.36367142 22.38328857 103.36381744 21.14709473 103.3639679 C17.84764809 103.36338894 14.54826336 103.35835978 11.2488277 103.35139394 C7.80415703 103.34515973 4.35948562 103.34455655 0.91481018 103.34336853 C-5.6123273 103.34025541 -12.13944811 103.33204229 -18.66657823 103.32201904 C-26.09572016 103.3108573 -33.52486286 103.3053473 -40.95401108 103.30032361 C-56.24018372 103.28985966 -71.52633972 103.2722606 -86.8125 103.25 C-86.22180467 106.2586712 -85.61996744 109.26440215 -85.01171875 112.26953125 C-84.84764526 113.11132935 -84.68357178 113.95312744 -84.51452637 114.82043457 C-82.30108147 125.64666863 -78.17963639 135.70986506 -69.23046875 142.6953125 C-58.9612374 149.29814623 -46.52318488 150.10637547 -34.71484375 147.58984375 C-24.23620374 143.84862916 -16.69763158 135.02026316 -11.8125 125.25 C-6.4087922 125.79650775 -2.42860589 127.71710946 2.2890625 130.21484375 C3.04794769 130.60821426 3.80683289 131.00158478 4.5887146 131.40687561 C7.00076247 132.65935132 9.40665606 133.9231553 11.8125 135.1875 C13.43710064 136.03397005 15.06209695 136.87968116 16.6875 137.72460938 C19.6660748 139.27383874 22.64209689 140.82776917 25.61572266 142.38647461 C28.12689836 143.70096927 30.64464147 144.9974798 33.1875 146.25 C26.73324064 164.31543951 9.46815809 177.69801841 -7.1796875 185.7109375 C-31.33541213 195.9446531 -61.937806 195.4207026 -86.25 185.875 C-88.11648641 185.02659709 -89.9713671 184.15210237 -91.8125 183.25 C-93.19308594 182.58871094 -93.19308594 182.58871094 -94.6015625 181.9140625 C-101.78385278 178.25210605 -107.7909988 173.58252066 -113.8125 168.25 C-114.44929688 167.69699219 -115.08609375 167.14398437 -115.7421875 166.57421875 C-133.63243259 149.96184831 -142.79777521 123.57939412 -143.93530273 99.66870117 C-144.79384587 69.55706223 -139.14099094 41.16232279 -119.8125 17.25 C-118.92691406 16.10144531 -118.92691406 16.10144531 -118.0234375 14.9296875 C-90.78595142 -18.33481678 -34.739662 -24.06574025 0 0 Z M-74.8125 38.25 C-81.54620898 47.19041843 -84.24938952 57.30822662 -85.8125 68.25 C-63.3725 68.25 -40.9325 68.25 -17.8125 68.25 C-20.8665039 47.72882826 -20.8665039 47.72882826 -32.8125 32.25 C-45.72952984 23.79811628 -64.74549056 26.79784921 -74.8125 38.25 Z " fill="#216E70" transform="translate(1670.8125,360.75)"/>
<path d="M0 0 C-1.26396097 3.45703884 -2.70801632 6.23993132 -4.90625 9.1875 C-5.48101074 9.96311279 -6.05577148 10.73872559 -6.64794922 11.5378418 C-7.25912598 12.350354 -7.87030273 13.16286621 -8.5 14 C-9.43416748 15.25453979 -9.43416748 15.25453979 -10.38720703 16.53442383 C-15.52057455 23.41076402 -20.72583995 30.23108951 -26 37 C-26.75023437 36.55269531 -27.50046875 36.10539062 -28.2734375 35.64453125 C-44.73619895 25.92030566 -59.41680815 19.8450034 -78.75 19.75 C-79.78382812 19.729375 -80.81765625 19.70875 -81.8828125 19.6875 C-89.97088049 19.64675407 -97.62272513 20.24304092 -104.0625 25.5 C-106.91618234 29.18217076 -107.36291276 32.31477669 -107.26953125 36.94140625 C-106.8028386 40.50585588 -105.39081157 42.37010727 -103 45 C-93.63618205 51.00697755 -81.57631198 52.75456177 -70.78515625 54.9296875 C-69.99235764 55.08978302 -69.19955902 55.24987854 -68.38273621 55.41482544 C-65.12958473 56.06811798 -61.87579167 56.7172323 -58.6184082 57.34912109 C-36.96483205 61.57092845 -14.32038074 68.09631084 -1.125 87.1875 C7.09667273 101.33732919 8.56033225 119.07673019 5.3046875 135.046875 C4.41237123 138.18122964 3.34880417 141.0360134 2 144 C1.59910156 144.93457031 1.19820312 145.86914062 0.78515625 146.83203125 C-7.08819294 163.14926219 -22.26804264 172.01409788 -38.69921875 177.97265625 C-49.87613003 181.45138722 -61.23337194 183.12478247 -72.90625 183.23828125 C-73.74038925 183.2480751 -74.5745285 183.25786896 -75.4339447 183.26795959 C-110.38874797 183.59382887 -150.48875408 180.52421588 -177.328125 154.765625 C-177.87984375 154.18296875 -178.4315625 153.6003125 -179 153 C-170.1391686 140.89079863 -161.16045121 128.88423986 -152 117 C-151.42266113 117.38857178 -150.84532227 117.77714355 -150.25048828 118.17749023 C-148.73050215 119.19794956 -147.20625922 120.21207528 -145.6796875 121.22265625 C-143.92692334 122.38520391 -142.1817335 123.55927389 -140.4453125 124.74609375 C-123.10921503 136.29491833 -105.70604789 140.31493944 -85.125 140.4375 C-83.91320068 140.44765137 -82.70140137 140.45780273 -81.45288086 140.46826172 C-71.05284841 140.36726982 -60.70168858 139.48037124 -52.4921875 132.53125 C-49.36068058 129.31776646 -48.90595799 126.32061366 -48.6875 122 C-48.82350016 118.18483769 -49.43874703 115.96144875 -52 113 C-60.14592504 105.49838541 -73.39072452 104.70402617 -83.81640625 102.6640625 C-137.31974846 92.10428595 -137.31974846 92.10428595 -152.375 70.5 C-161.21992292 56.0582897 -162.97801906 40.44761994 -159.875 23.8125 C-156.28366971 9.06476866 -148.21953557 -2.20113691 -135.5 -10.48046875 C-134.675 -10.98191406 -133.85 -11.48335938 -133 -12 C-132.278125 -12.44988281 -131.55625 -12.89976562 -130.8125 -13.36328125 C-92.9215361 -34.61116552 -33.83236849 -24.81040356 0 0 Z " fill="#216E70" transform="translate(1362,370)"/>
<path d="M0 0 C0 19.8 0 39.6 0 60 C13.53 60 27.06 60 41 60 C41 74.19 41 88.38 41 103 C27.47 103 13.94 103 0 103 C0.06297104 115.90036508 0.13842667 128.80049262 0.23571491 141.70064545 C0.28039626 147.69104155 0.31965754 153.68136999 0.34643555 159.671875 C0.37249048 165.45565123 0.41290896 171.23916677 0.46318626 177.02278137 C0.47984006 179.22667696 0.49136357 181.43061762 0.49761391 183.63456726 C0.50727094 186.72735771 0.53535031 189.81948346 0.56762695 192.91210938 C0.56619186 193.81842102 0.56475677 194.72473267 0.5632782 195.6585083 C0.6480513 201.42185382 1.53288011 205.76146525 4 211 C8.80263797 215.00219831 12.89993668 215.61551942 19.08203125 215.40234375 C23.17288053 214.83827752 26.7821626 213.53722627 30.58984375 211.97265625 C32.72946902 211.10917701 34.762203 210.53145832 37 210 C38.67739218 213.99978797 40.34955546 218.0017108 42.01708984 222.00561523 C42.58404701 223.36492489 43.15238214 224.72366072 43.72216797 226.08178711 C44.54505238 228.04388365 45.36281484 230.0080505 46.1796875 231.97265625 C46.67194824 233.15093994 47.16420898 234.32922363 47.67138672 235.54321289 C49.00357084 239.00929063 50.03602806 242.41810425 51 246 C36.52198294 256.89776989 22.25248274 261.59229815 4.125 261.4375 C2.89281738 261.43065186 1.66063477 261.42380371 0.39111328 261.41674805 C-8.37294575 261.26184246 -15.87812088 260.49723973 -24 257 C-24.88945313 256.649375 -25.77890625 256.29875 -26.6953125 255.9375 C-37.95611011 250.97861665 -46.44537641 241.99047699 -51.40234375 230.84765625 C-57.65235544 214.74255366 -57.27863016 198.25710283 -57.1953125 181.22265625 C-57.19157442 178.95723089 -57.18873121 176.6918039 -57.18673706 174.42637634 C-57.17916314 168.5131063 -57.15956946 162.59993718 -57.1373291 156.68670654 C-57.11673497 150.63294845 -57.10770655 144.57917378 -57.09765625 138.52539062 C-57.07631669 126.68354266 -57.04118665 114.84179558 -57 103 C-65.91 103 -74.82 103 -84 103 C-84 88.81 -84 74.62 -84 60 C-75.09 60 -66.18 60 -57 60 C-57 46.47 -57 32.94 -57 19 C-43.23748729 13.98073066 -29.45513461 9.08072085 -15.5625 4.4375 C-14.89780701 4.21427063 -14.23311401 3.99104126 -13.54827881 3.76104736 C-11.65964484 3.12760303 -9.76931147 2.49923235 -7.87890625 1.87109375 C-6.7916626 1.50943115 -5.70441895 1.14776855 -4.58422852 0.77514648 C-2 0 -2 0 0 0 Z " fill="#216E70" transform="translate(1470,292)"/>
<path d="M0 0 C0 19.8 0 39.6 0 60 C13.86 60 27.72 60 42 60 C42 74.19 42 88.38 42 103 C28.14 103 14.28 103 0 103 C0.1200135 119.46297912 0.1200135 119.46297912 0.2578125 135.92578125 C0.31799999 142.64531553 0.37615392 149.36482234 0.421875 156.08447266 C0.45888881 161.50511605 0.50529166 166.92560685 0.55806351 172.34611893 C0.57652221 174.40881281 0.59166123 176.47153929 0.60334396 178.53428268 C0.62035308 181.43495894 0.64942204 184.33529219 0.68115234 187.23583984 C0.68331253 188.07885651 0.68547272 188.92187317 0.68769836 189.79043579 C0.80228442 198.04993482 1.36225758 206.55686581 7 213 C13.10129628 215.98377053 19.54219599 215.98858303 26.01953125 214.13671875 C27.88885467 213.44854748 29.74735002 212.72973394 31.58984375 211.97265625 C34 211 34 211 38 210 C44.93 227.325 44.93 227.325 52 245 C47.58179985 249.41820015 44.77593196 251.51509993 39.4375 254.125 C38.4774707 254.62580078 38.4774707 254.62580078 37.49804688 255.13671875 C27.03294299 260.34374605 16.56313647 261.4886116 5 261.375 C3.81921875 261.38660156 2.6384375 261.39820313 1.421875 261.41015625 C-14.69022147 261.35692245 -28.96529195 256.7696159 -40.74609375 245.48046875 C-52.90263795 232.10194957 -56.36058136 215.51250382 -56.22705078 197.90722656 C-56.22734283 196.87159576 -56.22763489 195.83596497 -56.22793579 194.76895142 C-56.22655779 191.39275321 -56.21106953 188.01678399 -56.1953125 184.640625 C-56.19157692 182.28123088 -56.18873253 179.9218352 -56.18673706 177.56243896 C-56.17914352 171.38773223 -56.15953223 165.21312133 -56.1373291 159.03845215 C-56.11677799 152.72356461 -56.10771562 146.40866142 -56.09765625 140.09375 C-56.07628193 127.72911804 -56.04113511 115.36458203 -56 103 C-64.91 103 -73.82 103 -83 103 C-83 88.81 -83 74.62 -83 60 C-74.09 60 -65.18 60 -56 60 C-56 46.47 -56 32.94 -56 19 C-44.74666421 14.49866569 -44.74666421 14.49866569 -40.85742188 13.16894531 C-39.98371948 12.86893616 -39.11001709 12.568927 -38.20983887 12.25982666 C-37.30527954 11.95236511 -36.40072021 11.64490356 -35.46875 11.328125 C-34.51101685 11.00084412 -33.55328369 10.67356323 -32.56652832 10.33636475 C-30.56367971 9.6527815 -28.56037827 8.97052367 -26.55664062 8.28955078 C-23.47900073 7.24285823 -20.40350463 6.19003139 -17.328125 5.13671875 C-15.37512513 4.47098697 -13.42200448 3.80560939 -11.46875 3.140625 C-10.54799683 2.82506653 -9.62724365 2.50950806 -8.67858887 2.18438721 C-7.83010376 1.89698669 -6.98161865 1.60958618 -6.10742188 1.31347656 C-4.98684387 0.93186371 -4.98684387 0.93186371 -3.84362793 0.5425415 C-2 0 -2 0 0 0 Z " fill="#216E70" transform="translate(2912,292)"/>
<path d="M0 0 C1.34140016 2.68280031 0.73107274 3.83383124 0.01196289 6.72509766 C-0.34852394 8.19639633 -0.34852394 8.19639633 -0.71629333 9.69741821 C-1.11776329 11.28965714 -1.11776329 11.28965714 -1.52734375 12.9140625 C-1.79511124 13.99883881 -2.06287872 15.08361511 -2.33876038 16.20126343 C-3.19844765 19.6775065 -4.0678605 23.15123471 -4.9375 26.625 C-5.52082278 28.9764037 -6.10351341 31.32796433 -6.68554688 33.6796875 C-8.11635824 39.45496815 -9.55516921 45.22821169 -11 51 C-15.02568637 52.22696293 -17.01795657 51.3417755 -21 50 C-30.44672466 49.06125644 -39.14180738 49.00104704 -47 55 C-56.60429453 63.71259988 -60.2977727 75.42890609 -62 88 C-62.16526579 91.5923333 -62.18477126 95.18308449 -62.20532227 98.77880859 C-62.21522186 99.85257751 -62.22512146 100.92634644 -62.23532104 102.03265381 C-62.2668328 105.57122617 -62.29165265 109.10981195 -62.31640625 112.6484375 C-62.33698469 115.10609276 -62.35798139 117.56374456 -62.37937927 120.02139282 C-62.43450799 126.48216946 -62.48395782 132.94297755 -62.53222656 139.40380859 C-62.59135322 147.15989107 -62.65753051 154.91591621 -62.72252655 162.67195129 C-62.82042028 174.44793243 -62.90935566 186.22395077 -63 198 C-81.48 198 -99.96 198 -119 198 C-119 132.99 -119 67.98 -119 1 C-101.18 1 -83.36 1 -65 1 C-64.67 9.91 -64.34 18.82 -64 28 C-62.700625 25.710625 -61.40125 23.42125 -60.0625 21.0625 C-52.98771921 9.11655866 -44.86227508 1.7242086 -31.5390625 -2.84375 C-21.28509773 -5.43279094 -9.64311863 -4.15651665 0 0 Z " fill="#216E70" transform="translate(1865,351)"/>
</svg>
